<?xml version="1.0" encoding="utf-8"?><svg xmlns="http://www.w3.org/2000/svg" xmlns:xlink="http://www.w3.org/1999/xlink"><symbol viewBox="0 0 71 21" id="burger" xmlns="http://www.w3.org/2000/svg"><rect x=".378" y=".975" width="70.168" height="7.197" rx="2"/><rect x="23.768" y="13.569" width="46.778" height="7.197" rx="2"/><rect x=".378" y="13.569" width="19.791" height="7.197" rx="2"/></symbol><symbol class="bsvg-inline--fa bfa-times bfa-w-11" viewBox="0 0 352 512" id="close" xmlns="http://www.w3.org/2000/svg"><path d="M242.72 256l100.07-100.07c12.28-12.28 12.28-32.19 0-44.48l-22.24-22.24c-12.28-12.28-32.19-12.28-44.48 0L176 189.28 75.93 89.21c-12.28-12.28-32.19-12.28-44.48 0L9.21 111.45c-12.28 12.28-12.28 32.19 0 44.48L109.28 256 9.21 356.07c-12.28 12.28-12.28 32.19 0 44.48l22.24 22.24c12.28 12.28 32.2 12.28 44.48 0L176 322.72l100.07 100.07c12.28 12.28 32.2 12.28 44.48 0l22.24-22.24c12.28-12.28 12.28-32.19 0-44.48L242.72 256z"/></symbol><symbol viewBox="0 0 39 39" id="mail" xmlns="http://www.w3.org/2000/svg"><g clip-path="url(#cclip0)"><path d="M38.22 8.502L26.762 19.887 38.22 31.272c.207-.433.333-.912.333-1.423V9.925c0-.511-.126-.99-.333-1.423zm-2.988-1.898H4.091c-.511 0-.99.126-1.423.333L17.314 21.51a3.324 3.324 0 004.695 0L36.655 6.937a3.282 3.282 0 00-1.423-.333zM1.103 8.502A3.282 3.282 0 00.77 9.925v19.924c0 .512.126.99.333 1.423l11.459-11.385L1.103 8.502z"/><path d="M25.196 21.453l-1.622 1.621a5.54 5.54 0 01-7.826 0l-1.621-1.622L2.668 32.837c.433.207.912.333 1.423.333h31.141c.511 0 .99-.126 1.423-.333L25.196 21.452z"/></g><defs><clipPath id="cclip0"><path transform="translate(.77 .996)" d="M0 0h37.783v37.783H0z"/></clipPath></defs></symbol><symbol viewBox="0 0 34 33" id="phone" xmlns="http://www.w3.org/2000/svg"><path d="M30.581 21.851c-1.982 0-3.93-.31-5.774-.92-.904-.308-2.015-.025-2.567.542l-3.641 2.749c-4.223-2.255-6.825-4.855-9.048-9.046l2.668-3.547a2.617 2.617 0 00.644-2.652 18.415 18.415 0 01-.923-5.784A2.602 2.602 0 009.34.594H3.394a2.602 2.602 0 00-2.6 2.599c0 16.424 13.363 29.786 29.787 29.786a2.602 2.602 0 002.6-2.598V24.45a2.602 2.602 0 00-2.6-2.599z"/></symbol><symbol viewBox="0 0 19 25" id="phone-bordered" xmlns="http://www.w3.org/2000/svg"><path d="M6.278 2.858a.906.906 0 00-.23-.312.998.998 0 00-1.123-.12l-1.776.977c-.83.457-1.32 1.278-1.252 2.125a22.615 22.615 0 003.248 9.952 23.93 23.93 0 007.44 7.65c.738.48 1.73.487 2.562.032l1.777-.975a.935.935 0 00.296-.256.86.86 0 00-.014-1.074l-2.474-3.107a.942.942 0 00-.327-.26.99.99 0 00-.414-.098l-3.166-.05a2.543 2.543 0 01-1.2-.322 2.39 2.39 0 01-.879-.842L6.31 12.165a2.24 2.24 0 01-.328-1.144 2.238 2.238 0 01.307-1.15L7.826 7.24a.871.871 0 00.046-.79L6.278 2.86zM4.177 1.195a2.567 2.567 0 012.004-.19c.329.104.63.274.885.499.255.225.456.498.59.802l1.594 3.59c.292.659.25 1.409-.115 2.034l-1.537 2.632a.87.87 0 00.008.89l2.437 4.014c.082.135.2.248.342.327a.98.98 0 00.466.124l3.165.051a2.55 2.55 0 011.066.252c.331.16.62.389.844.67l2.473 3.107c.889 1.117.547 2.722-.727 3.42l-1.777.975c-1.271.698-2.888.735-4.153-.088-3.238-2.107-5.936-4.88-7.893-8.115A23.988 23.988 0 01.405 5.634C.288 4.182 1.13 2.868 2.402 2.17l1.776-.975h-.001z"/></symbol><symbol class="fsvg-inline--fa ffa-play-circle ffa-w-16" viewBox="0 0 512 512" id="play" xmlns="http://www.w3.org/2000/svg"><path d="M371.7 238l-176-107c-15.8-8.8-35.7 2.5-35.7 21v208c0 18.4 19.8 29.8 35.7 21l176-101c16.4-9.1 16.4-32.8 0-42zM504 256C504 119 393 8 256 8S8 119 8 256s111 248 248 248 248-111 248-248zm-448 0c0-110.5 89.5-200 200-200s200 89.5 200 200-89.5 200-200 200S56 366.5 56 256z"/></symbol></svg>